# xmcd CD database file
#
# Track frame offsets:
#	150
#	18758
#	52579
#	85166
#	116542
#	148499
#	162863
#	174241
#	203518
#	227136
#	255363
#
# Disc length: 3799 seconds
#
# Revision: 0
# Processed by: cddbd v1.5.2PL0 Copyright (c) Steve Scherf et al.
# Submitted via: CDex 1.51
#
DISCID=7d0ed50b
DTITLE=Steve Smith - The Best Of Steve Smith
DYEAR=2009
DGENRE=Jazz
TTITLE0=King Twang
TTITLE1=Geo 100
TTITLE2=Wrong Is Right
TTITLE3=Caliente
TTITLE4=Nutville
TTITLE5=Drums Stop, No Good
TTITLE6=The Spirit Of DunDun
TTITLE7=Scotland
TTITLE8=Ya Gotta Try
TTITLE9=Baton Rouge
TTITLE10=Khanda West - Flashpoint
EXTD=YEAR: 2009
EXTT0=
EXTT1=
EXTT2=
EXTT3=
EXTT4=
EXTT5=
EXTT6=
EXTT7=
EXTT8=
EXTT9=
EXTT10=
PLAYORDER=
